<svg width="23" height="23" viewBox="0 0 23 23" fill="none" xmlns="http://www.w3.org/2000/svg">
<g clip-path="url(#clip0_711_8906)">
<path d="M0 0H23V23H0V0Z" fill="white"/>
<path d="M0 0H23V1.76706H0V0ZM0 3.53412H23V5.30122H0V3.53412ZM0 7.06828H23V8.83538H0V7.06828ZM0 10.6024H23V12.3695H0V10.6024ZM0 14.1366H23V15.9037H0V14.1366ZM0 17.6707H23V19.4378H0V17.6707ZM0 21.2049H23V22.9719H0V21.2049Z" fill="#DC1F2B"/>
<path d="M0 0.0136719H17.6875V12.4316H0V0.0136719Z" fill="white"/>
<path d="M0 0.0136719V12.4316H17.6813V0.0136719H0ZM1.93752 11.6555L1.51251 11.3513L1.09377 11.6555L1.24998 11.1898L0.82501 10.8856H1.34998L1.40623 10.7055L1.50623 10.395L1.60623 10.7055L1.66876 10.8856H2.18749L1.78126 11.1898L1.93752 11.6555ZM1.78126 8.70625L1.84375 8.90493L1.94375 9.19673L1.53124 8.90493L1.12501 9.19673L1.21874 8.90493L1.24998 8.70625L0.82501 8.40198H1.34998L1.50623 7.9115L1.66876 8.40198H2.18749L1.78126 8.70625ZM1.78126 6.27231L1.94379 6.76284L1.51874 6.45857L1.1 6.76284L1.25002 6.26612L0.82501 5.96186H1.34998L1.50623 5.47137L1.66876 5.96186H2.18749L1.78126 6.27231ZM2.13124 3.57142L1.78126 3.82599L1.94379 4.31648L1.51874 4.01845L1.1 4.31648L1.25002 3.81976L0.893768 3.56519L0.82501 3.51554H1.34998L1.50623 3.02501L1.66876 3.51554H2.18749L2.13124 3.57142ZM1.78126 1.33617L1.93124 1.79566V1.8267L1.87499 1.78947L1.49377 1.51625L1.11251 1.78943L1.07503 1.82047V1.78943L1.24998 1.32998L0.82501 1.02572H1.34998L1.50623 0.529003L1.66876 1.02572H2.18749L1.78126 1.33617ZM3.40623 10.4137L2.98749 10.1094L2.56248 10.4137L2.72501 9.94802L2.30623 9.6438H2.82497L2.98749 9.14708L3.14375 9.6438H3.66876L3.24375 9.94802L3.40623 10.4137ZM3.24375 7.46443L3.40627 7.95496L2.98749 7.65693L2.56248 7.95496L2.72501 7.46443L2.30623 7.16021H2.82497L2.98126 6.69453L3.13124 7.16021H3.65625L3.24375 7.46443ZM3.24375 5.0305L3.34998 5.35341L3.40623 5.52102L3.17499 5.35337L2.98749 5.2168L2.79377 5.35337L2.56248 5.52102L2.61874 5.35337L2.72501 5.0305L2.30623 4.72628H2.82497L2.98749 4.23579L3.12501 4.71389H3.65002L3.24375 5.0305ZM3.24375 2.58418L3.40627 3.0809L2.98749 2.77668L2.56248 3.0809L2.72501 2.58418L2.30623 2.27996H2.82497L2.98126 1.80185L3.12501 2.26753H3.65002L3.24375 2.58418ZM4.86876 11.6679L4.45002 11.3637L4.03124 11.6679L4.18749 11.1898L3.75002 10.8545H4.26876L4.33124 10.6745L4.43124 10.364L4.53124 10.6745L4.59377 10.8545H5.1125L4.7125 11.1898L4.86876 11.6679ZM4.7125 8.7062L4.77499 8.90489L4.86876 9.19673L4.46248 8.90493L4.05625 9.19673L4.15002 8.90493L4.18749 8.70625L3.75002 8.39579H4.26876L4.43128 7.90527L4.59377 8.39579H5.1125L4.7125 8.7062ZM4.7125 6.27231L4.86872 6.76284L4.44998 6.45857L4.03124 6.76284L4.18749 6.27231L3.75002 5.96186H4.26876L4.43128 5.47137L4.59377 5.96186H5.1125L4.7125 6.27231ZM5.06248 3.56519L4.7125 3.81976L4.86872 4.31029L4.44998 4.01226L4.03124 4.31029L4.18749 3.81976L3.83752 3.56519L3.74998 3.51554H4.26872L4.43124 3.02501L4.59377 3.51554H5.1125L5.06248 3.56519ZM4.7125 1.32998L4.86248 1.78943V1.82047L4.82501 1.78943L4.44375 1.51625L4.06248 1.78943L4.02501 1.82047V1.78943L4.17499 1.32998L3.74998 1.02572H4.26872L4.43124 0.529003L4.59377 1.02572H5.1125L4.7125 1.32998ZM6.33752 10.4075L5.9125 10.1032L5.49377 10.4075L5.65625 9.94802L5.23124 9.6438H5.75625L5.91246 9.14708L6.07499 9.6438H6.59373L6.17499 9.94802L6.33752 10.4075ZM6.17499 7.46443L6.33752 7.95496L5.9125 7.65693L5.49377 7.95496L5.65625 7.46443L5.23124 7.16021H5.75625L5.90623 6.69453L6.05625 7.16021H6.57499L6.17499 7.46443ZM6.17499 5.0305L6.28126 5.35341L6.33752 5.52102L6.10623 5.35337L5.9125 5.2168L5.72501 5.35337L5.49377 5.52102L5.54998 5.35337L5.65625 5.0305L5.23124 4.72628H5.75625L5.91246 4.23579L6.07499 4.72628H6.59373L6.17499 5.0305ZM6.17499 2.58418L6.33752 3.0809L5.9125 2.77668L5.49377 3.0809L5.65625 2.58418L5.23124 2.27996H5.75625L5.91246 1.80185L6.06876 2.27996H6.58749L6.17499 2.58418ZM7.8 11.6679L7.38126 11.3637L6.95625 11.6679L7.11878 11.1712L6.7 10.867H7.21874L7.28126 10.6869L7.38126 10.3764L7.48126 10.6869L7.53752 10.867H8.06248L7.63752 11.1712L7.8 11.6679ZM7.63747 8.7062L7.70623 8.90489L7.8 9.19673L7.39377 8.90493L6.98126 9.19673L7.08126 8.90493L7.14375 8.70625L6.72501 8.40198H7.24375L7.40627 7.9115L7.56248 8.40198H8.08754L7.63747 8.7062ZM7.63747 6.27231L7.8 6.76284L7.38126 6.45857L6.95625 6.76284L7.11878 6.27231L6.7 5.96809H7.21874L7.38126 5.47756L7.53747 5.96809H8.06253L7.63747 6.27231ZM7.99377 3.57142L7.63752 3.82599L7.8 4.31648L7.38126 4.01845L6.95625 4.31648L7.11878 3.82599L6.76876 3.57142L6.7 3.52173H7.21874L7.38126 3.03125L7.53747 3.52173H8.06253L7.99377 3.57142ZM7.63752 1.33617L7.79373 1.79566V1.8267L7.75625 1.79566L7.37499 1.52244L6.99377 1.79566L6.94998 1.8267V1.79566L7.1 1.33617L6.68126 1.03195H7.2L7.36253 0.535236L7.51874 1.03195H8.04379L7.63752 1.33617ZM9.26248 10.4137L8.84375 10.1094L8.42501 10.4137L8.58122 9.92317L8.16248 9.61895H8.68122L8.84375 9.12223L9.00627 9.61895H9.52501L9.10623 9.92317L9.26248 10.4137ZM9.10627 7.46443L9.26248 7.95496L8.84375 7.65693L8.42501 7.95496L8.58122 7.46443L8.16248 7.16021H8.68122L8.83124 6.69453L8.98126 7.16021H9.5L9.10627 7.46443ZM9.10627 5.0305L9.2125 5.35341L9.26248 5.52102L9.03751 5.35337L8.84375 5.2168L8.65002 5.35337L8.42501 5.52102L8.47499 5.35337L8.58126 5.0305L8.16248 4.72628H8.68122L8.84375 4.23579L9.00627 4.72628H9.52501L9.10627 5.0305ZM9.10627 2.58418L9.26248 3.0809L8.84375 2.77668L8.42501 3.0809L8.58122 2.58418L8.16248 2.27996H8.68122L8.83751 1.80185L8.99373 2.27996H9.51246L9.10627 2.58418ZM10.7312 11.6679L10.3062 11.3637L9.88749 11.6679L10.05 11.1712L9.62501 10.867H10.15L10.2062 10.6869L10.3062 10.3764L10.4125 10.6869L10.4688 10.867H10.9875L10.5688 11.1712L10.7312 11.6679ZM10.5687 8.7062L10.6312 8.90489L10.7312 9.19673L10.3187 8.90493L9.90623 9.19673L10 8.90493L10.0688 8.70625L9.64375 8.40198H10.1688L10.325 7.9115L10.4875 8.40198H11.0062L10.5687 8.7062ZM10.5687 6.27231L10.7312 6.76284L10.3062 6.45857L9.88749 6.76284L10.05 6.27231L9.62501 5.96809H10.15L10.3062 5.47756L10.4688 5.96809H10.9875L10.5687 6.27231ZM10.9187 3.57142L10.5688 3.82599L10.7313 4.31648L10.3062 4.01845L9.88749 4.31648L10.05 3.82599L9.69377 3.57142L9.62501 3.52173H10.15L10.3062 3.03125L10.4688 3.52173H10.9875L10.9187 3.57142ZM10.5688 1.33617L10.7187 1.79566V1.8267L10.675 1.79566L10.2938 1.52244L9.9125 1.79566L9.87503 1.8267V1.79566L10.025 1.33617L9.6 1.03195H10.125L10.2812 0.535236L10.4437 1.03195H10.9625L10.5688 1.33617ZM12.1938 10.4137L11.775 10.1094L11.35 10.4137L11.5125 9.92317L11.0938 9.61895H11.6125L11.775 9.12223L11.9312 9.61895H12.4563L12.0312 9.92317L12.1938 10.4137ZM12.0312 7.46443L12.1938 7.95496L11.775 7.65693L11.35 7.95496L11.5125 7.46443L11.0938 7.16021H11.6125L11.7625 6.69453L11.9125 7.16021H12.4375L12.0312 7.46443ZM12.0312 5.0305L12.1375 5.35341L12.1938 5.52102L11.9625 5.35337L11.775 5.2168L11.5813 5.35337L11.35 5.52102L11.4062 5.35337L11.5125 5.0305L11.0938 4.72628H11.6125L11.775 4.23579L11.9312 4.72628H12.4563L12.0312 5.0305ZM12.0312 2.58418L12.1938 3.0809L11.775 2.77668L11.35 3.0809L11.5125 2.58418L11.0938 2.27996H11.6125L11.7687 1.80185L11.925 2.27996H12.45L12.0312 2.58418ZM13.6563 11.6679L13.2375 11.3637L12.8187 11.6679L12.975 11.1712L12.5563 10.867H13.075L13.1375 10.6869L13.2375 10.3764L13.3375 10.6869L13.4 10.867H13.9187L13.5 11.1898L13.6563 11.6679ZM13.5 8.7062L13.5625 8.90489L13.6563 9.19673L13.25 8.90493L12.8437 9.19673L12.9375 8.90493L13 8.70625L12.5813 8.40198H13.1L13.2625 7.9115L13.425 8.40198H13.9437L13.5 8.7062ZM13.5 6.27231L13.6562 6.76284L13.2375 6.45857L12.8187 6.76284L12.975 6.27231L12.5563 5.96809H13.075L13.2375 5.47756L13.4 5.96809H13.9187L13.5 6.27231ZM13.85 3.57142L13.5 3.82599L13.6562 4.31648L13.2375 4.01845L12.8187 4.31648L12.975 3.82599L12.625 3.57142L12.5563 3.52173H13.075L13.2375 3.03125L13.4 3.52173H13.9187L13.85 3.57142ZM13.5 1.33617L13.65 1.79566V1.8267L13.6125 1.79566L13.2312 1.52244L12.85 1.79566L12.8125 1.8267V1.78947L12.9625 1.32998L12.5437 1.02572H13.0625L13.225 0.529003L13.3875 1.02572H13.9063L13.5 1.33617ZM15.125 10.4137L14.7 10.1094L14.2813 10.4137L14.4438 9.92317L14.0187 9.61895H14.5438L14.7 9.12223L14.8625 9.61895H15.3813L14.9625 9.92317L15.125 10.4137ZM14.9625 7.46443L15.125 7.95496L14.7 7.65693L14.2813 7.95496L14.4438 7.46443L14.0187 7.16021H14.5438L14.6938 6.69453L14.85 7.16021H15.3687L14.9625 7.46443ZM14.9625 5.0305L15.0688 5.35341L15.125 5.52102L14.8938 5.35337L14.7 5.2168L14.5125 5.35337L14.2813 5.52102L14.3375 5.35337L14.4437 5.0305L14.0187 4.72628H14.5438L14.7 4.23579L14.8625 4.72628H15.3813L14.9625 5.0305ZM14.9625 2.58418L15.125 3.0809L14.7 2.77668L14.2813 3.0809L14.4438 2.58418L14.0187 2.27996H14.5438L14.7 1.80185L14.8562 2.27996H15.375L14.9625 2.58418ZM16.5875 11.6679L16.1688 11.3637L15.7437 11.6679L15.9063 11.1712L15.4875 10.867H16.0062L16.0688 10.6869L16.1688 10.3764L16.2688 10.6869L16.325 10.867H16.875L16.45 11.1712L16.5875 11.6679ZM16.425 8.7062L16.4938 8.90489L16.5875 9.19673L16.1813 8.90493L15.7688 9.19673L15.8688 8.90493L15.9312 8.70625L15.5125 8.40198H16.0312L16.1938 7.9115L16.35 8.40198H16.875L16.425 8.7062ZM16.425 6.27231L16.5875 6.76284L16.1688 6.45857L15.7437 6.76284L15.9063 6.27231L15.4875 5.96809H16.0062L16.1688 5.47756L16.325 5.96809H16.875L16.425 6.27231ZM16.7813 3.57142L16.425 3.82599L16.5875 4.31648L16.1688 4.01845L15.7437 4.31648L15.9063 3.82599L15.5563 3.57142L15.4875 3.52173H16.0062L16.1688 3.03125L16.325 3.52173H16.875L16.7813 3.57142ZM16.425 1.33617L16.5812 1.79566V1.8267L16.5437 1.79566L16.1625 1.52244L15.7813 1.79566L15.7375 1.8267V1.79566L15.8875 1.33617L15.4688 1.03195H15.9875L16.15 0.535236L16.3062 1.03195H16.875L16.425 1.33617Z" fill="#1B304F"/>
</g>
<defs>
<clipPath id="clip0_711_8906">
<rect width="23" height="23" rx="11.5" fill="white"/>
</clipPath>
</defs>
</svg>
